<?xml version="1.0" encoding="UTF-8"?>
<svg width="57px" height="175px" viewBox="0 0 57 175" version="1.1" xmlns="http://www.w3.org/2000/svg" xmlns:xlink="http://www.w3.org/1999/xlink">
    <!-- Generator: Sketch 54.1 (76490) - https://sketchapp.com -->
    <title>LR</title>
    <desc>Created with Sketch.</desc>
    <g id="LR" stroke="none" stroke-width="1" fill="none" fill-rule="evenodd">
        <g id="LT" transform="translate(28.000000, 53.500000) scale(-1, 1) translate(-28.000000, -53.500000) translate(0.000000, 7.000000)" fill="#FF51A6">
            <path d="M30.1148379,93 C46.7468036,93 54.9152926,81.325092 54.9152926,65.5361364 C54.9152926,60.732685 57.5031877,0 34.0708507,0 C10.6385138,0 4.54747351e-13,61.3676253 4.54747351e-13,64.4115669 C4.54747351e-13,80.2005225 13.4828722,93 30.1148379,93 Z" id="Oval"></path>
        </g>
        <g id="LH" transform="translate(11.629542, 135.000000)" fill="#FF51A6">
            <path d="M0,0 L32,0 L32,16.3636364 C32,32.1212121 26.6666667,40 16,40 C5.33333333,40 0,32.1212121 0,16.3636364 L0,0 Z" id="Rectangle"></path>
        </g>
    </g>
</svg>